<svg fill="none" xmlns="http://www.w3.org/2000/svg" viewBox="0 0 1603 1076"><path opacity=".5" d="M149.174-.723C85.056 90.173 7.164 177.96 11.184 296.138c.636 18.724-3.12 48.204 18.812 56.282 10.296 3.792 22.685 12.192 33.376 13.762 11.482 1.687 27.942-.408 38.374 3.809 42.971 17.375 89.908 12.063 136.435 10.481 80.567-2.74 155.803-42.608 236.918-35.851 103.418 8.616 206.05-26.563 308.128-40.717 56.233-7.798 114.216-5.764 170.593-11.583 81.79-8.442 158.35-41.628 241.74-44.463 48.42-1.647 96.83.709 145.39-.942 61.62-2.095 117.51-6.649 178.56-6.072 42.11.398 61.65 55.594 56.87 90.119-4.49 32.519-32.54 61.449-52.21 86.047-36.36 45.45-77.07 82.316-132.08 104.771-79.26 32.36-163.47 51.475-247.09 71.177-40.12 9.453-69.18 17.541-112.54 17.541-29.46 2.549-45.754 1.556-74.959 2.549-54.918 1.868-95.19-8.474-141.543-20.09-59.766-14.977-107.595-20.51-163.104-36.255-84.555-23.985-200.888-59.173-281.805-9.095-37.283 23.073-88.112 55.775-110.179 94.688-30.974 54.621-46.818 117.374 21.194 152.479 43.611 22.511 97.643 6.903 145.458 7.728 68.733 1.185 135.011 11.196 203.974 8.851 70.761-2.407 141.495-1.141 212.236-3.215 42.416-1.244 82.803-3.742 124.129 8.23 24.241 7.023 44.719 20.229 67.899 28.598 10.77 3.889 29.1.35 40.06 1.084 36.1 2.417 71.04 7.534 105.97 16.852 38.43 10.255 78.73 5.654 117.27 15.802 69.87 18.397 139.18 6.545 204.18 41.084 23.74 12.612 48.78 17.803 72.82 29.32 19.56 9.375 31.7 31.221 49.84 40.33 19.44 9.759 39.64 21.441 58.84 30.241" stroke="#ECA400" stroke-width="3" stroke-linecap="round" stroke-dasharray="10 15"/><path opacity=".5" d="M244.177-55.602c17.658 9.864 27.148 25.314 36.487 42.775 9.608 17.966 23.145 33.481 32.367 51.707 8.585 16.965 18.694 32.415 33.532 44.576 11.964 9.804 27.628 15.524 41.358 22.442 16.901 8.517 34.132 13.789 52.316 17.335 34.375 6.704 73.651-4.379 106.973-13.326 17.484-4.695 36.31-7.97 52.768-15.747 16.298-7.7 30.246-15.827 47.905-20.996 15.919-4.66 30.61-11.281 46.82-15.435 16.165-4.142 32.117 1.681 48.561 2.339 10.591.423 17.912-1.361 27.562 3.79 20.233 10.8 34.35 24.726 41.148 46.74 6.977 22.597 6.774 47.98 15.806 69.873 7.091 17.187 21.188 31.689 31.604 46.917 18.66 27.281 59.583 42.185 91.209 48.353 7.176 1.399 14.825 3.881 21.971 1.115 4.251-1.646 7.131-3.982 11.7-4.851 19.776-3.759 41.916-11.099 58.946-21.899 16.13-10.223 33.78-17.685 50.27-27.327 15.6-9.119 30.37-19.922 45.62-29.593 16.71-10.592 35.42-22.626 53.9-30.243 9.92-4.09 20.9-4.125 31.33-6.23 34.49-6.959 68.18-.015 98.7 16.306 11.85 6.335 24.7 12.002 35.64 19.855 18.84 13.533 31.19 32.199 42.61 52.007 24.51 42.531 49.28 88.827 62.49 136.373 12.33 44.342 26.61 87.896 37.03 132.877 10.3 44.434 25.44 86.113 47.63 126.116 17.05 30.725 38.34 45.409 71.39 55.355" stroke="#ECA400" stroke-width="3" stroke-linecap="round" stroke-dasharray="10 15"/></svg>